<svg xmlns="http://www.w3.org/2000/svg" width="20" height="20" viewBox="0 0 20 20">
    <g fill="none" fill-rule="evenodd">
        <g fill="#FB9874">
            <g>
                <g>
                    <path d="M10 .833c5.063 0 9.167 4.104 9.167 9.167S15.063 19.167 10 19.167.833 15.063.833 10 4.937.833 10 .833zM10 2.5c-4.142 0-7.5 3.358-7.5 7.5 0 4.142 3.358 7.5 7.5 7.5 4.142 0 7.5-3.358 7.5-7.5 0-3.275-2.1-6.06-5.026-7.082-.206 1.644-1.608 2.915-3.307 2.915l-.105-.006c-.41-.052-.729-.402-.729-.827 0-.425.318-.775.73-.827l.104-.006c.904 0 1.64-.721 1.666-1.62-.274-.032-.552-.047-.833-.047zm3.134 10.161c.371-.272.893-.192 1.165.18.272.37.192.892-.18 1.164-1.032.758-2.376 1.18-3.91 1.18-1.716 0-3.074-.391-4.07-1.207-.356-.291-.409-.816-.117-1.173.291-.356.816-.408 1.173-.116.665.545 1.654.83 3.013.83 1.188 0 2.185-.314 2.926-.858zm-.63-3.494c.46 0 .833.373.833.833 0 .427-.322.78-.736.828l-.097.005c-.464 0-.837-.373-.837-.833 0-.427.321-.78.736-.828l.1-.005zm-5 0c.46 0 .833.373.833.833 0 .427-.322.78-.736.828l-.097.005c-.464 0-.837-.373-.837-.833 0-.427.321-.78.736-.828l.1-.005z" transform="translate(-516 -449) translate(504 429) translate(12 20)"/>
                </g>
            </g>
        </g>
    </g>
</svg>
